<svg xmlns="http://www.w3.org/2000/svg" width="863" height="1293" viewBox="0 0 863 1293"><rect width="100%" height="100%" fill="#DDDDDD"/><path fill="#999999" d="M195.645 667.445h35.55v13.65h-52.09v-88.93h16.54zm72.88-50.43q7.01 0 12.76 2.27 5.75 2.28 9.84 6.46t6.31 10.21q2.21 6.03 2.21 13.47 0 7.5-2.21 13.53-2.22 6.02-6.31 10.27-4.09 4.24-9.84 6.52-5.75 2.27-12.76 2.27-7.07 0-12.85-2.27-5.78-2.28-9.87-6.52-4.09-4.25-6.34-10.27-2.24-6.03-2.24-13.53 0-7.44 2.24-13.47 2.25-6.03 6.34-10.21t9.87-6.46q5.78-2.27 12.85-2.27m0 53.32q7.87 0 11.66-5.29 3.78-5.29 3.78-15.5t-3.78-15.56q-3.79-5.35-11.66-5.35-7.99 0-11.84 5.38-3.84 5.38-3.84 15.53t3.84 15.47q3.85 5.32 11.84 5.32m76.08-5.54v-10.64q-6.58.31-11.07 1.14t-7.2 2.12q-2.7 1.29-3.87 3.02-1.17 1.72-1.17 3.75 0 4 2.37 5.72 2.36 1.72 6.18 1.72 4.67 0 8.08-1.69 3.42-1.69 6.68-5.14m-32.11-33.15-2.7-4.85q10.88-9.97 26.2-9.97 5.53 0 9.9 1.82 4.36 1.81 7.38 5.04 3.01 3.23 4.58 7.72t1.57 9.84v39.85h-6.89q-2.15 0-3.32-.65-1.17-.64-1.85-2.61l-1.35-4.55q-2.4 2.15-4.67 3.78-2.28 1.63-4.74 2.74t-5.26 1.69q-2.79.58-6.18.58-3.99 0-7.38-1.07-3.38-1.08-5.84-3.23t-3.81-5.35q-1.36-3.2-1.36-7.44 0-2.4.8-4.77t2.62-4.52q1.81-2.15 4.7-4.06 2.89-1.9 7.11-3.32 4.21-1.41 9.8-2.31 5.6-.89 12.8-1.07v-3.69q0-6.34-2.71-9.38t-7.81-3.04q-3.69 0-6.12.86t-4.27 1.93q-1.85 1.08-3.36 1.94-1.5.86-3.35.86-1.6 0-2.7-.83-1.11-.83-1.79-1.94m100.8 30.75v-28.29q-2.58-3.13-5.63-4.42-3.04-1.3-6.54-1.3-3.45 0-6.22 1.3-2.76 1.29-4.73 3.9-1.97 2.62-3.02 6.64-1.04 4.03-1.04 9.51 0 5.53.89 9.37.89 3.85 2.55 6.28t4.06 3.5q2.4 1.08 5.35 1.08 4.74 0 8.06-1.97t6.27-5.6m0-72.69h15.19v91.39h-9.28q-3.02 0-3.82-2.77l-1.29-6.09q-3.81 4.37-8.76 7.08-4.95 2.7-11.53 2.7-5.17 0-9.47-2.15-4.31-2.15-7.42-6.24-3.1-4.09-4.79-10.12t-1.69-13.77q0-7.02 1.9-13.04 1.91-6.03 5.48-10.46 3.56-4.43 8.55-6.92 4.98-2.49 11.19-2.49 5.29 0 9.04 1.66t6.7 4.49zm30.69 28.29h15.25v63.1h-15.25zm17.34-18.39q0 1.97-.8 3.69t-2.12 3.02q-1.32 1.29-3.1 2.06-1.79.77-3.82.77-1.96 0-3.72-.77-1.75-.77-3.04-2.06-1.29-1.3-2.06-3.02t-.77-3.69q0-2.03.77-3.81t2.06-3.08q1.29-1.29 3.04-2.06 1.76-.76 3.72-.76 2.03 0 3.82.76 1.78.77 3.1 2.06 1.32 1.3 2.12 3.08t.8 3.81m26.57 21.16 1.05 4.98q1.9-1.91 4.03-3.54 2.12-1.63 4.48-2.76 2.37-1.14 5.08-1.79 2.7-.64 5.9-.64 5.17 0 9.17 1.75 3.99 1.75 6.67 4.92 2.67 3.17 4.06 7.56 1.38 4.4 1.38 9.69v40.16h-15.19v-40.16q0-5.78-2.64-8.95-2.65-3.16-8.06-3.16-3.94 0-7.38 1.78t-6.52 4.86v45.63h-15.19v-63.1h9.29q2.95 0 3.87 2.77m79.28 27.24q2.82 0 4.92-.77 2.09-.76 3.47-2.12 1.38-1.35 2.09-3.26.71-1.9.71-4.18 0-4.67-2.8-7.41t-8.39-2.74q-5.6 0-8.4 2.74t-2.8 7.41q0 2.22.71 4.12.71 1.91 2.09 3.29 1.38 1.39 3.51 2.15 2.12.77 4.89.77m17.15 35.92q0-1.85-1.1-3.01-1.11-1.17-3.02-1.82-1.9-.64-4.46-.95-2.55-.31-5.41-.46-2.86-.16-5.9-.28-3.05-.12-5.94-.49-2.52 1.41-4.09 3.32-1.56 1.91-1.56 4.43 0 1.66.83 3.1.83 1.45 2.64 2.49 1.81 1.05 4.71 1.63 2.89.59 7.07.59 4.24 0 7.32-.65 3.07-.64 5.07-1.78t2.92-2.71.92-3.41m-3.01-63.78h18.14v5.66q0 2.71-3.26 3.32l-5.65 1.05q1.29 3.26 1.29 7.13 0 4.68-1.88 8.46-1.87 3.78-5.2 6.42-3.32 2.65-7.84 4.09-4.52 1.45-9.74 1.45-1.85 0-3.57-.18-1.72-.19-3.38-.5-2.96 1.79-2.96 4 0 1.91 1.76 2.8 1.75.89 4.64 1.26t6.58.46 7.56.4q3.88.31 7.57 1.08t6.58 2.43 4.64 4.52q1.76 2.86 1.76 7.35 0 4.18-2.06 8.11-2.06 3.94-5.97 7.02-3.91 3.07-9.59 4.95-5.69 1.87-12.95 1.87-7.13 0-12.42-1.38-5.29-1.39-8.8-3.69-3.5-2.31-5.22-5.32-1.73-3.02-1.73-6.27 0-4.43 2.68-7.42 2.67-2.98 7.35-4.76-2.52-1.29-4-3.45-1.48-2.15-1.48-5.65 0-1.42.53-2.93.52-1.5 1.53-2.98 1.02-1.47 2.56-2.8 1.53-1.32 3.63-2.36-4.8-2.59-7.54-6.89-2.74-4.31-2.74-10.09 0-4.67 1.88-8.45 1.88-3.79 5.23-6.46 3.35-2.68 7.93-4.09 4.58-1.42 10-1.42 4.05 0 7.62.83t6.52 2.43m25.52 52.59q0-1.91.71-3.63t1.94-2.95 2.95-1.97 3.69-.74 3.66.74 2.95 1.97 2 2.95.74 3.63q0 1.96-.74 3.66-.74 1.69-2 2.92t-2.95 1.93q-1.69.71-3.66.71t-3.69-.71q-1.72-.7-2.95-1.93t-1.94-2.92q-.71-1.7-.71-3.66m29.22 0q0-1.91.7-3.63.71-1.72 1.94-2.95t2.95-1.97 3.69-.74 3.66.74 2.95 1.97 2 2.95.74 3.63q0 1.96-.74 3.66-.74 1.69-2 2.92t-2.95 1.93q-1.69.71-3.66.71t-3.69-.71q-1.72-.7-2.95-1.93t-1.94-2.92q-.7-1.7-.7-3.66m29.21 0q0-1.91.71-3.63.7-1.72 1.93-2.95t2.95-1.97q1.73-.74 3.69-.74 1.97 0 3.66.74t2.96 1.97q1.26 1.23 1.99 2.95.74 1.72.74 3.63 0 1.96-.74 3.66-.73 1.69-1.99 2.92-1.27 1.23-2.96 1.93-1.69.71-3.66.71-1.96 0-3.69-.71-1.72-.7-2.95-1.93t-1.93-2.92q-.71-1.7-.71-3.66"/></svg>